<?xml version="1.0" standalone="no"?>
<!DOCTYPE svg PUBLIC "-//W3C//DTD SVG 20010904//EN"
 "http://www.w3.org/TR/2001/REC-SVG-20010904/DTD/svg10.dtd">
<svg version="1.0" xmlns="http://www.w3.org/2000/svg"
 width="800.000000pt" height="800.000000pt" viewBox="0 0 800.000000 800.000000"
 preserveAspectRatio="xMidYMid meet">
<metadata>
Created by potrace 1.14, written by Peter Selinger 2001-2017
</metadata>
<g transform="translate(0.000000,800.000000) scale(0.100000,-0.100000)"
fill="#000000" stroke="none">
<path d="M4370 7883 c-14 -26 -41 -75 -61 -108 -20 -33 -100 -172 -179 -310
-79 -137 -152 -262 -162 -277 -11 -16 -16 -28 -11 -28 4 0 3 -4 -3 -8 -6 -4
-37 -54 -69 -112 -33 -58 -63 -106 -67 -108 -4 -2 -8 -7 -8 -12 0 -4 -25 -52
-57 -106 -31 -55 -70 -124 -87 -154 -16 -30 -33 -56 -38 -58 -4 -2 -8 -10 -8
-17 0 -8 -7 -21 -16 -29 -8 -9 -13 -16 -9 -16 3 0 -2 -12 -13 -27 -10 -16 -30
-48 -44 -73 -14 -25 -51 -90 -83 -145 -32 -55 -80 -138 -107 -185 -27 -47 -53
-92 -58 -100 -14 -21 -139 -238 -165 -285 -91 -164 -271 -471 -279 -477 -6 -4
-7 -8 -3 -8 4 0 -6 -20 -23 -45 -17 -25 -27 -45 -23 -45 4 0 3 -4 -2 -8 -6 -4
-47 -70 -90 -147 -44 -77 -83 -141 -87 -143 -5 -2 -8 -7 -8 -12 0 -5 -65 -122
-145 -260 -80 -139 -145 -256 -145 -261 0 -5 -3 -9 -7 -9 -5 0 -13 -10 -19
-23 -8 -18 -167 -295 -205 -357 -5 -8 -22 -39 -39 -67 l-29 -53 22 -14 c12 -7
67 -40 122 -71 55 -32 116 -67 135 -78 19 -11 55 -31 80 -45 25 -13 52 -30 60
-37 8 -6 22 -14 31 -17 8 -3 62 -34 120 -68 69 -41 108 -59 117 -53 7 4 26 31
42 58 15 28 67 118 115 200 48 83 116 202 152 265 36 63 73 123 81 133 8 9 12
17 8 17 -4 0 1 12 12 28 10 15 30 47 44 72 14 25 62 107 107 184 44 76 81 140
81 142 0 2 17 32 38 66 21 35 41 70 45 78 4 8 18 33 32 55 14 22 28 47 32 55
4 8 27 49 51 90 41 68 76 129 106 185 6 11 13 22 16 25 3 3 14 21 24 40 60
110 152 265 158 268 5 2 8 8 8 14 0 5 24 51 54 101 29 51 65 112 79 137 14 25
52 91 86 148 34 57 61 105 61 108 0 2 16 28 35 58 19 30 35 57 35 60 0 4 44
80 87 151 7 11 15 27 19 35 4 8 29 51 55 95 151 257 229 396 229 405 0 5 3 10
8 10 4 0 12 10 18 23 18 39 59 112 65 117 4 3 18 28 33 55 15 28 31 57 36 65
38 60 100 172 100 180 0 6 5 10 10 10 6 0 10 4 10 8 0 8 137 251 191 338 l19
31 -28 13 c-15 8 -35 21 -44 29 -10 8 -18 10 -18 5 0 -5 -4 -4 -8 1 -4 6 -54
38 -112 70 -58 33 -111 65 -118 72 -7 7 -17 13 -22 13 -5 0 -43 20 -83 45 -41
25 -78 45 -82 45 -4 0 -19 9 -34 19 -26 19 -136 81 -143 81 -1 0 -14 -21 -28
-47z"/>
<path d="M4047 5260 c-9 -11 -17 -23 -17 -26 0 -3 -79 -141 -174 -307 -96
-166 -177 -309 -180 -317 -4 -11 14 -26 61 -52 73 -41 83 -46 216 -125 48 -29
90 -53 93 -53 2 0 39 -21 82 -46 42 -25 86 -50 97 -56 11 -7 70 -41 130 -76
61 -35 134 -77 162 -93 29 -16 79 -45 110 -64 68 -41 75 -42 89 -12 6 12 53
95 105 184 52 90 99 171 104 181 68 121 130 228 135 232 8 7 31 62 28 65 -4 3
-121 71 -166 97 -18 10 -93 53 -165 95 -73 42 -148 86 -168 97 -78 45 -146 83
-184 105 -22 13 -77 45 -123 72 -45 27 -84 49 -86 49 -2 0 -30 16 -62 35 -32
19 -60 35 -64 35 -3 0 -13 -9 -23 -20z"/>
<path d="M5275 4530 c-14 -22 -25 -42 -25 -46 0 -3 -8 -18 -19 -32 -10 -15
-29 -47 -43 -72 -14 -25 -37 -65 -52 -90 -15 -25 -29 -53 -33 -62 -3 -10 -9
-18 -14 -18 -5 0 -9 -5 -9 -10 0 -6 -49 -95 -109 -198 -60 -103 -118 -203
-129 -222 -10 -19 -43 -75 -71 -123 -28 -49 -51 -93 -51 -98 0 -5 -3 -9 -8 -9
-4 0 -18 -21 -32 -47 -20 -40 -116 -207 -149 -263 -36 -59 -337 -586 -340
-594 -2 -6 -7 -13 -10 -16 -7 -5 -68 -111 -134 -230 -16 -30 -38 -66 -47 -80
-9 -14 -30 -50 -47 -80 -17 -30 -86 -152 -155 -270 -68 -118 -180 -312 -247
-430 -68 -118 -141 -243 -162 -278 -22 -35 -39 -65 -39 -67 0 -3 -18 -34 -40
-70 -22 -36 -40 -68 -40 -71 0 -3 -13 -26 -30 -51 -16 -24 -30 -46 -30 -49 0
-5 -162 -286 -237 -412 -48 -81 -52 -101 -23 -109 11 -3 20 -8 20 -12 0 -4 16
-13 35 -21 19 -8 35 -17 35 -22 0 -4 5 -8 11 -8 12 0 145 -76 170 -97 9 -7 19
-10 22 -6 4 3 7 1 7 -5 0 -7 4 -12 10 -12 5 0 39 -18 75 -40 36 -22 67 -40 69
-40 2 0 34 -18 70 -40 36 -22 68 -40 72 -40 3 0 19 -9 34 -20 l29 -20 48 86
c26 47 53 93 58 102 6 9 28 49 50 87 21 39 43 72 47 73 4 2 8 12 8 23 0 10 5
19 10 19 6 0 10 5 10 11 0 6 8 23 19 37 19 28 77 131 95 169 6 13 14 23 19 23
4 0 7 4 7 10 0 5 14 33 31 62 18 29 41 69 52 88 89 159 153 266 159 268 5 2 8
8 8 12 0 7 100 186 151 270 21 36 184 320 212 370 17 30 48 83 69 118 21 34
38 65 38 68 0 3 16 30 35 60 19 30 35 57 35 59 0 3 12 24 26 47 14 23 36 60
48 82 13 23 32 57 43 76 11 19 68 118 127 220 58 102 110 192 116 200 5 8 26
44 46 80 20 36 57 98 80 137 24 40 44 75 44 78 0 3 12 24 27 48 14 23 40 67
56 97 17 30 33 57 36 60 3 3 14 21 25 40 33 62 67 122 156 275 48 83 97 166
108 185 11 19 70 123 132 230 160 276 148 248 114 276 -16 13 -33 23 -37 24
-7 0 -171 93 -247 140 -8 5 -37 21 -65 36 -27 14 -57 32 -66 40 -8 8 -18 14
-22 14 -4 0 -44 23 -91 50 -47 28 -89 50 -95 50 -6 0 -11 5 -11 10 0 22 -21 8
-45 -30z"/>
<path d="M3262 3902 c-23 -42 -47 -84 -52 -92 -9 -14 -113 -194 -245 -426
l-52 -92 86 -48 c47 -26 88 -52 89 -56 2 -4 8 -8 13 -8 8 0 233 -127 369 -209
19 -11 44 -25 55 -31 11 -6 38 -21 60 -34 109 -63 174 -101 215 -124 25 -14
65 -38 89 -53 47 -28 65 -29 74 -1 3 9 20 40 37 67 16 28 33 58 36 68 4 9 11
17 16 17 5 0 7 4 3 9 -3 5 -1 12 4 16 5 3 16 18 24 33 7 15 67 119 132 232 65
113 119 208 121 211 3 5 -214 136 -276 166 -14 7 -38 22 -55 32 -16 11 -41 26
-55 34 -14 7 -41 23 -60 34 -19 11 -157 90 -307 177 -149 86 -273 156 -275
156 -2 0 -22 -35 -46 -78z"/>
</g>
</svg>
